<svg width="31" height="19" viewBox="0 0 31 19" fill="none" xmlns="http://www.w3.org/2000/svg">
<path d="M6.4425 16.6189C5.06769 15.9464 4.018 14.9538 3.29344 13.6409C2.58746 12.328 2.23447 10.711 2.23447 8.78971C2.23447 8.23696 2.27242 7.70704 2.34833 7.19993H6.7641C6.64259 7.7136 6.58184 8.26754 6.58184 8.86175C6.58184 9.98249 6.75834 10.9751 7.11133 11.8397C7.46432 12.7043 8.02167 13.3847 8.78339 13.8811C9.54511 14.3614 10.5391 14.6015 11.7652 14.6015C12.174 14.6015 12.527 14.5935 12.8242 14.5775C13.1401 14.5455 13.428 14.5135 13.6881 14.4814C15.3931 14.8965 11.2558 18.9417 6.4425 16.6189Z" fill="url(#paint0_linear_10_1433)"/>
<path d="M7.88018 4.96545C8.29989 4.47115 8.80533 4.0648 9.39648 3.74639C10.3068 3.26608 11.3751 3.02592 12.6013 3.02592C18.8689 3.02592 11.9029 -1.22321 6.97199 1.08064C5.42997 1.80111 4.25024 2.81778 3.43278 4.13064C3.26956 4.39889 3.12301 4.67715 2.99313 4.96545H7.88018Z" fill="url(#paint1_linear_10_1433)"/>
<path fill-rule="evenodd" clip-rule="evenodd" d="M13.6494 7.7571H8.44394V10.7831H12.2061V14.3614C11.9646 14.3935 11.7138 14.4335 11.4537 14.4815C11.1936 14.5135 10.9056 14.5456 10.5898 14.5776C10.2925 14.5936 9.93951 14.6016 9.53078 14.6016C8.3046 14.6016 7.31065 14.3614 6.54893 13.8811C5.78721 13.3848 5.22985 12.7043 4.87686 11.8398C4.52387 10.9752 4.34737 9.98256 4.34737 8.86182C4.34737 8.26761 4.40813 7.71367 4.52963 7.2H0.113861C0.0379536 7.70711 0 8.23703 0 8.78978C0 10.711 0.352992 12.3281 1.05898 13.641C1.78354 14.9538 2.83322 15.9465 4.20803 16.6189C5.60142 17.2914 7.28278 17.6276 9.2521 17.6276C10.6826 17.6276 11.9553 17.5395 13.07 17.3634C14.0654 17.2087 15.025 17.0046 15.9487 16.7511C15.3569 16.2242 14.8627 15.6013 14.4659 14.8823C13.7599 13.5695 13.4069 11.9524 13.4069 10.0312C13.4069 9.22454 13.4877 8.46652 13.6494 7.7571ZM0.758665 4.96552C0.88854 4.67722 1.03509 4.39896 1.19831 4.13071C2.01577 2.81785 3.1955 1.80118 4.73752 1.08071C6.27954 0.360237 8.16526 0 10.3947 0C11.4537 0 12.4941 0.0960633 13.5159 0.28819C14.5377 0.480316 15.4666 0.736484 16.3026 1.05669L14.9093 3.9626C14.2962 3.69043 13.5995 3.46628 12.8192 3.29016C12.0389 3.11405 11.2214 3.02599 10.3668 3.02599C9.14063 3.02599 8.07236 3.26615 7.16202 3.74646C6.57086 4.06487 6.06542 4.47122 5.64571 4.96552H0.758665ZM23.0922 8.25365H30.9788V17.1395C29.9384 17.4437 28.8515 17.6839 27.7183 17.86C26.6035 18.0361 25.3309 18.1241 23.9004 18.1241C21.9311 18.1241 20.2497 17.7879 18.8563 17.1155C17.4815 16.443 16.4318 15.4504 15.7072 14.1375C15.0013 12.8247 14.6483 11.2076 14.6483 9.28633C14.6483 8.55044 14.7155 7.855 14.8501 7.2H19.3184C19.1032 7.84813 18.9956 8.56759 18.9956 9.35838C18.9956 10.4791 19.1721 11.4718 19.5251 12.3363C19.8781 13.2009 20.4355 13.8814 21.1972 14.3777C21.9589 14.858 22.9529 15.0982 24.1791 15.0982C24.5878 15.0982 24.9408 15.0901 25.238 15.0741C25.5539 15.0421 25.8418 15.0101 26.1019 14.9781C26.362 14.93 26.6128 14.89 26.8544 14.858V11.2796H23.0922V8.25365ZM20.7772 4.96552C21.0862 4.68839 21.4305 4.44756 21.8103 4.24302C22.7206 3.7627 23.7889 3.52255 25.0151 3.52255C25.8697 3.52255 26.6872 3.6106 27.4674 3.78672C28.2477 3.96284 28.9444 4.18698 29.5575 4.45916L30.9509 1.55325C30.1149 1.23304 29.186 0.976873 28.1641 0.784748C27.1423 0.592621 26.1019 0.496558 25.043 0.496558C22.8135 0.496558 20.9278 0.856794 19.3858 1.57727C17.8438 2.29774 16.664 3.31441 15.8466 4.62727C15.779 4.7383 15.7143 4.85105 15.6525 4.96552H20.7772Z" fill="url(#paint2_linear_10_1433)"/>
<path d="M15.6414 5.08968C16.7586 1.8621 21.3517 0.496582 25.0429 0.496582C26.1018 0.496582 27.1422 0.592645 28.1641 0.784772C29.1859 0.976898 30.1148 1.23307 30.9508 1.55328L29.5575 4.45919C28.9444 4.18701 28.2477 3.96286 27.4674 3.78674C26.6871 3.61063 25.8696 3.52257 25.015 3.52257C23.7888 3.52257 22.2207 3.78674 20.731 4.96555L15.6414 5.08968Z" fill="url(#paint3_linear_10_1433)"/>
<defs>
<linearGradient id="paint0_linear_10_1433" x1="10.3858" y1="-5.71704e-05" x2="10.3858" y2="17.6275" gradientUnits="userSpaceOnUse">
<stop stop-color="#4C4C4C"/>
<stop offset="0.312518" stop-color="#CEC4C4"/>
<stop offset="1" stop-color="#4C4C4C"/>
</linearGradient>
<linearGradient id="paint1_linear_10_1433" x1="10.3858" y1="-5.71704e-05" x2="10.3858" y2="17.6275" gradientUnits="userSpaceOnUse">
<stop stop-color="#4C4C4C"/>
<stop offset="0.312518" stop-color="#CEC4C4"/>
<stop offset="1" stop-color="#4C4C4C"/>
</linearGradient>
<linearGradient id="paint2_linear_10_1433" x1="15.4894" y1="0" x2="15.4894" y2="18.1241" gradientUnits="userSpaceOnUse">
<stop stop-color="#E8DFDF"/>
<stop offset="0.531273" stop-color="#F7F6F5"/>
<stop offset="0.750028" stop-color="#C4B6B6"/>
<stop offset="1" stop-color="#E8DFDF"/>
</linearGradient>
<linearGradient id="paint3_linear_10_1433" x1="20.3586" y1="3.10348" x2="30.2897" y2="0.49658" gradientUnits="userSpaceOnUse">
<stop stop-color="#5D2D29"/>
<stop offset="0.277873" stop-color="#AF222D"/>
<stop offset="1" stop-color="#AF222D"/>
</linearGradient>
</defs>
</svg>
